# xmcd
#
# Track frame offsets: 
#        150
#        33921
#        52718
#        77250
#        89810
#        110257
#        131959
#        161011
#        177593
#        192852
#
# Disc length: 2969 seconds
#
# Revision: 0
# Processed by: cddbd v1.5.2PL0 Copyright (c) Steve Scherf et al.
# Submitted via: ExactAudioCopy v1.0b1
#
DISCID=7c0b970a
DTITLE=Bobby Messano - That's Why I Don't Sing the Blues
DYEAR=2011
DGENRE=Blues
TTITLE0=More Then Meets The Eye
TTITLE1=That's Why I Don't Sing The Blues
TTITLE2=Lonely Ramona
TTITLE3=Blue Freddie
TTITLE4=No Soul City
TTITLE5=Gypsy Eyes
TTITLE6=San Antone
TTITLE7=My Life In Bags
TTITLE8=Nickels And Dimes
TTITLE9=Pride Of The Cockney
EXTD=
EXTT0=
EXTT1=
EXTT2=
EXTT3=
EXTT4=
EXTT5=
EXTT6=
EXTT7=
EXTT8=
EXTT9=
PLAYORDER=
